<?xml version="1.0" encoding="UTF-8" standalone="no"?>
<svg
   xmlns:dc="http://purl.org/dc/elements/1.1/"
   xmlns:cc="http://creativecommons.org/ns#"
   xmlns:rdf="http://www.w3.org/1999/02/22-rdf-syntax-ns#"
   xmlns:svg="http://www.w3.org/2000/svg"
   xmlns="http://www.w3.org/2000/svg"
   xmlns:sodipodi="http://sodipodi.sourceforge.net/DTD/sodipodi-0.dtd"
   xmlns:inkscape="http://www.inkscape.org/namespaces/inkscape"
   height="152"
   viewBox="0 0 121.60012 121.6"
   width="152"
   id="svg2"
   version="1.1"
   inkscape:version="0.48.4 r9939"
   sodipodi:docname="sunflower.svg">
  <metadata
     id="metadata14">
    <rdf:RDF>
      <cc:Work
         rdf:about="">
        <dc:format>image/svg+xml</dc:format>
        <dc:type
           rdf:resource="http://purl.org/dc/dcmitype/StillImage" />
        <dc:title></dc:title>
      </cc:Work>
    </rdf:RDF>
  </metadata>
  <defs
     id="defs12" />
  <sodipodi:namedview
     pagecolor="#ffffff"
     bordercolor="#666666"
     borderopacity="1"
     objecttolerance="10"
     gridtolerance="10"
     guidetolerance="10"
     inkscape:pageopacity="0"
     inkscape:pageshadow="2"
     inkscape:window-width="1323"
     inkscape:window-height="747"
     id="namedview10"
     showgrid="false"
     fit-margin-top="0"
     fit-margin-left="0"
     fit-margin-right="0"
     fit-margin-bottom="0"
     inkscape:zoom="0.36875"
     inkscape:cx="320.00122"
     inkscape:cy="319.99944"
     inkscape:window-x="43"
     inkscape:window-y="21"
     inkscape:window-maximized="1"
     inkscape:current-layer="svg2" />
  <path
     d="m 51.300087,46.550138 c 0,1.311819 -1.06318,2.375 -2.374994,2.375 -1.311814,0 -2.374993,-1.063181 -2.374993,-2.375 0,-1.31182 1.063179,-2.375 2.374993,-2.375 1.311814,0 2.374994,1.06318 2.374994,2.375 z m 0,0"
     id="path4"
     inkscape:connector-curvature="0" />
  <path
     d="m 60.800059,82.175114 c 11.785905,0 21.374941,-9.589062 21.374941,-21.374988 0,-11.785926 -9.589036,-21.374988 -21.374941,-21.374988 -1.311811,0 -2.62548,0.120614 -3.905749,0.358114 -1.289549,0.239353 -2.141205,1.478806 -1.901851,2.76836 0.239356,1.289541 1.478803,2.142131 2.768351,1.90184 0.995457,-0.184609 2.017817,-0.278314 3.039249,-0.278314 9.166919,0 16.624955,7.458046 16.624955,16.624988 0,9.16693 -7.458036,16.624976 -16.624955,16.624976 -9.166915,0 -16.624952,-7.458046 -16.624952,-16.624976 0,-2.043794 0.368309,-4.041217 1.094724,-5.938426 0.468502,-1.225536 -0.143799,-2.598571 -1.369333,-3.067087 -1.224606,-0.469431 -2.597648,0.143806 -3.067081,1.368404 -0.934227,2.441796 -1.408297,5.010691 -1.408297,7.637109 0,11.785924 9.589035,21.374988 21.374939,21.374988 z m 0,0"
     id="path6"
     inkscape:connector-curvature="0" />
  <path
     d="m 11.909524,70.606275 c -4.2360226,4.980993 -5.9727365,11.062287 -6.0580878,11.368437 -0.2931631,1.052053 0.1697748,2.16904 1.1216277,2.706193 0.2783195,0.156798 5.8781081,3.269342 12.4492321,3.76567 -2.056781,6.26221 -1.324801,12.628315 -1.285837,12.945605 0.131739,1.08544 0.987107,1.93988 2.071626,2.07161 3.453018,0.41935 8.724388,0.10213 12.944641,-1.28397 0.497266,6.57021 3.609804,12.17001 3.76659,12.44833 0.536228,0.95 1.653219,1.4148 2.707121,1.1207 0.305225,-0.0854 6.387434,-1.82206 11.368427,-6.05809 2.918643,6.30488 7.933961,11.03631 8.184449,11.2701 0.456443,0.42583 1.038132,0.63921 1.620746,0.63921 0.582618,0 1.164304,-0.21338 1.620749,-0.63921 0.250487,-0.23379 5.265804,-4.96615 8.185377,-11.2701 4.980991,4.23603 11.0632,5.97274 11.368424,6.05809 1.045555,0.29131 2.166255,-0.16328 2.706193,-1.1207 0.156788,-0.27832 3.269328,-5.87719 3.766591,-12.44833 4.095008,1.34429 9.392357,1.71538 12.944637,1.28397 1.08545,-0.1308 1.93989,-0.98617 2.07256,-2.07161 0.038,-0.31729 0.77001,-6.684322 -1.28677,-12.945605 6.57113,-0.497254 12.17184,-3.608872 12.45016,-3.76567 0.95186,-0.537153 1.41387,-1.65414 1.1207,-2.706193 -0.0853,-0.305224 -1.82206,-6.387444 -6.05808,-11.368437 6.30486,-2.919587 11.03629,-7.93491 11.27009,-8.185402 0.85257,-0.91289 0.85257,-2.329542 0,-3.241495 -0.2338,-0.250491 -4.96616,-5.265826 -11.27009,-8.185401 4.23602,-4.980993 5.97273,-11.062287 6.05808,-11.368437 0.29317,-1.052065 -0.16884,-2.16904 -1.1207,-2.706205 -0.27832,-0.156786 -5.8781,-3.269342 -12.45016,-3.766596 2.05678,-6.262198 1.3248,-12.627376 1.28677,-12.944665 -0.13267,-1.085446 -0.98711,-1.939888 -2.07256,-2.071629 -0.31635,-0.03895 -6.683376,-0.770949 -12.944637,1.284911 C 87.951058,12.850218 84.83759,7.2504187 84.680802,6.9721037 84.143647,6.0202397 83.02573,5.5573047 81.974609,5.8514007 81.669385,5.9367807 75.586247,7.6734647 70.606185,11.909492 67.686612,5.6055407 62.671295,0.87318675 62.420808,0.63939175 c -0.912888,-0.852589 -2.328608,-0.852589 -3.241495,0 C 58.928825,0.87318675 53.913507,5.6055407 50.993935,11.909492 46.012942,7.6734647 39.930734,5.9367467 39.625511,5.8514007 c -1.052048,-0.29317 -2.169038,0.169777 -2.706195,1.120703 -0.156786,0.278315 -3.270253,5.8781143 -3.76659,12.4501783 -6.262189,-2.056786 -12.628285,-1.324811 -12.944641,-1.285837 -1.084519,0.130815 -1.939887,0.986183 -2.071626,2.071629 -0.03896,0.317289 -0.770944,6.683393 1.28491,12.944665 -6.570197,0.496328 -12.1709132,3.60981 -12.4492329,3.766596 -0.9518527,0.537165 -1.413863,1.65414 -1.1206999,2.706205 0.084424,0.305223 1.8220652,6.387444 6.0580878,11.368437 -6.3039368,2.919575 -11.03629643,7.93491 -11.27008484,8.185401 -0.85258554,0.912879 -0.85258554,2.329531 0,3.241495 0.23378841,0.250492 4.96614804,5.265815 11.27008484,8.185402 z m 4.940172,1.681049 c 1.219039,0.256987 2.416741,0.38779 3.575479,0.38779 4.056042,0 7.74656,-1.59106 10.669841,-3.444676 0.654053,2.300781 1.576216,4.524553 2.743304,6.615669 -4.122841,0.922165 -7.533181,2.654241 -9.984249,5.105312 -0.83032,0.831262 -1.580855,1.771049 -2.2414,2.80269 -4.162733,0.11685 -8.280934,-1.365625 -10.539033,-2.357366 0.895261,-2.296138 2.754436,-6.248292 5.776058,-9.109419 z M 60.800059,34.67515 c 14.407674,0 26.124928,11.680155 26.124928,26.124976 0,15.938459 -14.210997,28.280099 -30.146645,25.817889 C 44.246541,84.68277 34.675134,73.839422 34.675134,60.800126 c 0,-14.386361 11.660661,-26.124976 26.124925,-26.124976 z M 22.739865,98.860392 c -0.104832,-5.021831 0.917527,-10.994564 4.473523,-14.549642 2.61713,-2.617132 6.415265,-3.722077 9.520383,-4.174811 1.402729,1.745067 2.986367,3.328717 4.730504,4.730525 -0.452732,3.105111 -1.557662,6.903258 -4.174794,9.520389 -3.56249,3.563427 -9.541719,4.578371 -14.549616,4.473539 z m 17.463622,11.666248 c -0.991745,-2.25903 -2.47426,-6.37539 -2.357366,-10.539062 1.032566,-0.660535 1.972357,-1.41107 2.802677,-2.241394 2.451067,-2.451071 4.184071,-5.861417 5.106237,-9.984274 2.09018,1.167098 4.314879,2.089263 6.614728,2.743315 -1.853608,2.923292 -3.44467,6.613817 -3.44467,10.669865 0,1.15874 0.130811,2.35737 0.387792,3.57548 -2.861126,3.02255 -6.814188,4.88173 -9.109398,5.77607 z m 20.596572,5.26488 c -3.433534,-3.84174 -7.124979,-9.44896 -7.124979,-14.61643 0,-3.703515 1.903706,-7.168605 3.778652,-9.682756 1.107711,0.11875 2.227483,0.182756 3.346327,0.182756 1.117918,0 2.238616,-0.06401 3.346329,-0.182756 1.874946,2.514151 3.77865,5.979241 3.77865,9.682756 0,5.17583 -3.703503,10.78768 -7.124979,14.61643 z m 20.594717,-5.26116 c -2.291496,-0.88878 -6.236214,-2.74147 -9.107541,-5.77885 0.256981,-1.21905 0.38779,-2.41768 0.38779,-3.57642 0,-4.056048 -1.591059,-7.746573 -3.444667,-10.669865 2.300774,-0.654052 4.524547,-1.576217 6.615654,-2.743315 0.922166,4.122857 2.654241,7.532265 5.106236,9.984274 0.83032,0.830324 1.770112,1.580859 2.802678,2.240468 0.116898,4.167378 -1.367476,8.286528 -2.36015,10.543708 z m 17.46548,-11.669968 c -5.039441,0.106756 -10.996404,-0.919387 -14.549619,-4.472612 -2.61713,-2.618058 -3.72206,-6.416205 -4.174792,-9.521316 1.744135,-1.401808 3.328702,-2.986384 4.730504,-4.730525 3.105119,0.452734 6.903251,1.557679 9.520384,4.174811 3.560633,3.560647 4.578354,9.53895 4.473523,14.549642 z m 1.127193,-15.105357 c -0.661472,-1.032567 -1.41108,-1.972354 -2.2414,-2.803616 -2.451067,-2.451071 -5.86141,-4.183147 -9.984249,-5.105312 1.167086,-2.091104 2.089252,-4.314889 2.743301,-6.61567 2.923284,1.853617 6.613802,3.444676 10.669849,3.444676 1.15873,0 2.35736,-0.130802 3.57547,-0.387789 3.02255,2.861127 4.88173,6.814206 5.77606,9.109419 -2.25903,0.992667 -6.3763,2.475189 -10.539031,2.358292 z m 1.187501,-15.829909 c -3.70351,0 -7.168588,-1.903717 -9.682739,-3.777734 0.11875,-1.10865 0.182762,-2.229354 0.182762,-3.347266 0,-1.117913 -0.06402,-2.238628 -0.182762,-3.347266 2.514151,-1.874017 5.979229,-3.777734 9.682739,-3.777734 5.15169,0 10.77003,3.687746 14.61641,7.125 -3.82782,3.420558 -9.4406,7.125 -14.61641,7.125 z m 3.57547,-18.612198 c -1.21904,-0.256987 -2.41674,-0.38779 -3.57547,-0.38779 -4.056047,0 -7.747493,1.59106 -10.669849,3.444664 -0.654049,-2.300769 -1.576215,-4.524553 -2.743301,-6.615657 4.122839,-0.922177 7.533182,-2.654241 9.984249,-5.105312 0.83032,-0.831262 1.579928,-1.771061 2.240471,-2.80269 4.16459,-0.116969 8.28186,1.365625 10.53996,2.357365 -0.89526,2.296139 -2.75443,6.249219 -5.77606,9.10942 z M 98.860256,22.73986 c 0.104833,5.021819 -0.917528,10.994564 -4.473523,14.549642 -2.617133,2.617131 -6.415265,3.722065 -9.520384,4.174799 -1.402731,-1.745055 -2.986369,-3.328705 -4.730504,-4.730513 0.452732,-3.105123 1.557662,-6.903258 4.173866,-9.520402 3.549501,-3.548582 9.511104,-4.581149 14.550545,-4.473526 z M 81.396632,11.07361 c 0.992674,2.259029 2.474262,6.376318 2.357368,10.539989 -1.03164,0.660535 -1.971432,1.410145 -2.802678,2.240457 -2.451069,2.452009 -4.18407,5.861429 -5.106236,9.984274 -2.090181,-1.167087 -4.314882,-2.089252 -6.614728,-2.743315 1.853608,-2.923281 3.444667,-6.613805 3.444667,-10.669854 0,-1.158738 -0.130809,-2.357365 -0.38779,-3.575491 2.861123,-3.021617 6.81419,-4.881717 9.109397,-5.77606 z M 60.800059,5.8087217 c 3.433536,3.842679 7.124979,9.4498883 7.124979,14.6164393 0,3.703516 -1.903704,7.169532 -3.77865,9.682757 -2.214496,-0.2375 -4.478161,-0.2375 -6.692656,0 -1.874946,-2.513225 -3.778652,-5.979241 -3.778652,-9.682757 0,-5.177678 3.662684,-10.7413059 7.124979,-14.6164393 z M 40.205342,11.069893 c 2.291498,0.888773 6.236213,2.741463 9.107543,5.778851 -0.256981,1.219052 -0.387792,2.417679 -0.387792,3.576417 0,4.056049 1.591062,7.746573 3.44467,10.669854 -2.300775,0.654063 -4.524548,1.576228 -6.614728,2.743315 -0.922166,-4.122845 -2.65517,-7.532265 -5.106237,-9.984274 -0.831246,-0.830312 -1.77104,-1.580848 -2.802677,-2.240457 -0.117823,-4.167388 1.367476,-8.286529 2.359221,-10.543706 z M 22.739865,22.73986 c 5.02645,-0.104856 10.996404,0.920313 14.549616,4.473526 2.617132,2.617144 3.722062,6.415279 4.174794,9.520402 -1.744137,1.402733 -3.328702,2.986384 -4.730504,4.730513 -3.105118,-0.452736 -6.903253,-1.557668 -9.520383,-4.1748 -3.560635,-3.55972 -4.578357,-9.53895 -4.473523,-14.549641 z m -1.127194,15.106283 c 0.661473,1.032567 1.41108,1.972354 2.2414,2.80269 2.451068,2.451071 5.861408,4.184073 9.984249,5.106238 -1.167088,2.090178 -2.089251,4.314888 -2.743304,6.614731 -2.923281,-1.853604 -6.613799,-3.444665 -10.669841,-3.444665 -1.158738,0 -2.357367,0.130803 -3.575479,0.38779 -3.022551,-2.861127 -4.881724,-6.814208 -5.776058,-9.10942 2.259955,-0.99174 6.375373,-2.475189 10.539033,-2.357365 z m -1.187496,15.828983 c 3.703503,0 7.168582,1.903717 9.682736,3.778661 -0.11875,1.107711 -0.182764,2.228426 -0.182764,3.346339 0,1.117912 0.06402,2.238616 0.182764,3.346339 -5.228696,3.899252 -9.336693,4.270345 -12.949281,3.334263 -0.374803,-0.159565 -5.051499,-1.052968 -11.3498696,-6.680602 3.8268933,-3.419632 9.4396706,-7.125 14.6164146,-7.125 z m 0,0"
     id="path8"
     inkscape:connector-curvature="0" />
</svg>
